<svg width="32" height="17" fill="none" xmlns="http://www.w3.org/2000/svg"><path d="M7.42 16.28c-1.027 0-1.94-.26-2.74-.78-.8-.507-1.48-1.187-2.04-2.04-.547-.853-.967-1.8-1.26-2.84a12.33 12.33 0 01-.42-3.18c0-.933.113-1.833.34-2.7a7.1 7.1 0 011.06-2.32A5.293 5.293 0 014.16.78c.733-.4 1.6-.6 2.6-.6.96 0 1.74.173 2.34.52.613.347 1.067.793 1.36 1.34.293.547.44 1.12.44 1.72 0 .6-.14 1.187-.42 1.76a3.724 3.724 0 01-1.22 1.4c-.52.36-1.16.553-1.92.58-.12 0-.18-.027-.18-.08 0-.107.127-.173.38-.2.547-.013 1.013-.173 1.4-.48.387-.32.68-.72.88-1.2.2-.493.3-1.007.3-1.54a3.83 3.83 0 00-.38-1.66A3.098 3.098 0 008.6 1.02C8.08.673 7.413.5 6.6.5s-1.513.18-2.1.54a4.43 4.43 0 00-1.46 1.48 7.212 7.212 0 00-.84 2.1 10.71 10.71 0 00-.28 2.48c0 1.053.127 2.1.38 3.14a11.55 11.55 0 001.14 2.86c.493.853 1.093 1.533 1.8 2.04.707.52 1.513.78 2.42.78.613 0 1.18-.14 1.7-.42.52-.267.94-.68 1.26-1.24.333-.547.5-1.233.5-2.06 0-.293-.02-.6-.06-.92-.04-.32-.113-.66-.22-1.02a.444.444 0 01-.02-.14c0-.093.027-.14.08-.14.067 0 .127.067.18.2.253.76.38 1.473.38 2.14 0 .787-.167 1.473-.5 2.06-.333.6-.8 1.067-1.4 1.4-.6.333-1.313.5-2.14.5zm5.503-2.44c-.24 0-.413-.1-.52-.3a1.635 1.635 0 01-.16-.74c0-.36.06-.78.18-1.26.133-.48.307-.973.52-1.48.213-.52.454-.993.72-1.42.28-.44.573-.793.88-1.06.307-.28.607-.42.9-.42.267 0 .494.12.68.36.2.227.3.487.3.78 0 .173-.026.32-.08.44-.053.107-.113.16-.18.16-.053 0-.1-.04-.14-.12-.133-.307-.28-.527-.44-.66a.679.679 0 00-.46-.2c-.266 0-.533.153-.8.46-.253.293-.46.633-.62 1.02-.133.293-.26.647-.38 1.06-.107.4-.2.8-.28 1.2-.066.387-.1.707-.1.96 0 .453.107.68.32.68.267 0 .607-.293 1.02-.88.307-.427.58-.92.82-1.48.254-.56.467-1.047.64-1.46.067-.133.14-.22.22-.26.08-.04.153-.06.22-.06.16 0 .26.067.3.2.053.133.08.247.08.34 0 .347-.033.66-.1.94-.067.267-.1.593-.1.98 0 .28.02.54.06.78.054.227.14.34.26.34.147 0 .334-.187.56-.56.054-.107.134-.16.24-.16.12 0 .18.06.18.18 0 .173-.12.36-.36.56-.24.187-.48.28-.72.28-.32 0-.546-.133-.68-.4-.226-.44-.34-.833-.34-1.18 0-.36-.007-.607-.02-.74-.066.16-.193.413-.38.76-.187.333-.406.687-.66 1.06-.253.36-.52.667-.8.92s-.54.38-.78.38zm3.634 3.06a.433.433 0 01-.32-.12c-.093-.08-.107-.173-.04-.28.187-.28.367-.68.54-1.2.16-.507.3-1.04.42-1.6.133-.56.24-1.067.32-1.52.093-.467.16-.793.2-.98-.24-.227-.36-.48-.36-.76a.99.99 0 01.14-.54c.107-.147.187-.213.24-.2a.19.19 0 01.1.04c.053.013.08.033.08.06.08-.627.147-1.247.2-1.86.053-.627.08-1.2.08-1.72 0-.427-.02-.807-.06-1.14-.04-.333-.1-.6-.18-.8-.08-.2-.12-.353-.12-.46 0-.147.04-.22.12-.22.093 0 .167.06.22.18.147.293.253.753.32 1.38.08.627.12 1.34.12 2.14 0 .547-.013 1.127-.04 1.74-.027.6-.073 1.2-.14 1.8.24-.213.487-.42.74-.62a5.14 5.14 0 00.66-.66v-.02c0-.027-.013-.053-.04-.08a.28.28 0 01-.02-.12c0-.093.067-.207.2-.34.133-.133.307-.32.52-.56.227-.253.46-.48.7-.68.24-.213.46-.313.66-.3.16 0 .24.053.24.16 0 .12-.113.3-.34.54-.227.24-.5.493-.82.76-.307.267-.593.513-.86.74-.253.213-.42.36-.5.44l-.76.84-.4.42c.173.44.373.873.6 1.3.227.427.48.78.76 1.06.293.28.593.42.9.42.32 0 .647-.193.98-.58.227-.28.42-.593.58-.94a7.92 7.92 0 01.4-.78c.067-.133.133-.22.2-.26.067-.053.12-.08.16-.08.093 0 .127.067.1.2a4.536 4.536 0 01-.28.66c-.133.267-.267.52-.4.76-.12.227-.213.387-.28.48-.253.373-.507.647-.76.82-.253.173-.5.26-.74.26-.307 0-.607-.113-.9-.34a4.032 4.032 0 01-.82-.88c-.24-.36-.46-.74-.66-1.14a23.896 23.896 0 01-.54 2.72c-.213.813-.447 1.373-.7 1.68-.12.12-.26.18-.42.18zm7.876-2.64c-.48 0-.9-.28-1.26-.84-.347-.573-.52-1.473-.52-2.7 0-.8.1-1.44.3-1.92.2-.493.447-.853.74-1.08.293-.227.573-.34.84-.34.266 0 .493.093.68.28.186.173.28.427.28.76 0 .32-.093.66-.28 1.02a4.817 4.817 0 01-.68.96c-.254.28-.507.467-.76.56a.445.445 0 01-.2.04c-.053 0-.08-.02-.08-.06 0-.107.107-.227.32-.36.267-.187.52-.467.76-.84.24-.387.36-.727.36-1.02 0-.173-.04-.307-.12-.4-.08-.107-.173-.16-.28-.16-.2 0-.42.16-.66.48-.227.307-.393.84-.5 1.6-.027.213-.053.42-.08.62-.014.187-.02.373-.02.56 0 .747.113 1.333.34 1.76.227.413.527.62.9.62.32 0 .68-.187 1.08-.56.4-.387.793-.987 1.18-1.8.093-.213.2-.32.32-.32.08 0 .12.053.12.16a.675.675 0 01-.08.3c-.347.853-.767 1.513-1.26 1.98-.494.467-.974.7-1.44.7zm4.335.6c-.173 0-.3-.06-.38-.18a.6.6 0 01-.1-.32c0-.213.094-.433.28-.66.067-.08.16-.187.28-.32a4.8 4.8 0 00.26-.34 2.786 2.786 0 00-.7-.66c-.293-.2-.58-.453-.86-.76a3.692 3.692 0 01-.64-1.02 3.051 3.051 0 01-.26-1.18c0-.44.1-.86.3-1.26.2-.4.447-.747.74-1.04.32-.32.674-.573 1.06-.76.387-.2.787-.3 1.2-.3.28 0 .554.067.82.2.267.133.4.353.4.66 0 .36-.08.54-.24.54-.066 0-.113-.067-.14-.2a1.012 1.012 0 01-.02-.2V6.9a.418.418 0 00-.18-.34.588.588 0 00-.4-.16c-.306 0-.646.12-1.02.36-.373.24-.686.52-.94.84-.253.333-.46.713-.62 1.14-.16.413-.24.813-.24 1.2 0 .48.107.893.32 1.24.214.347.467.653.76.92.307.267.58.527.82.78.12-.147.247-.287.38-.42.147-.133.28-.24.4-.32.107-.067.18-.1.22-.1.04 0 .06.02.06.06 0 .067-.06.147-.18.24l-.24.24c-.12.12-.266.273-.44.46.107.12.194.247.26.38.067.133.1.28.1.44 0 .213-.12.433-.36.66-.24.227-.473.34-.7.34zm.22-.54c.094 0 .18-.087.26-.26.094-.16.14-.32.14-.48a.589.589 0 00-.04-.22.462.462 0 00-.06-.12c-.106.133-.206.28-.3.44a.85.85 0 00-.12.4c0 .16.04.24.12.24z" fill="#000"/></svg>